<svg width="116" height="50" viewBox="0 0 116 50" fill="none" xmlns="http://www.w3.org/2000/svg">
<path d="M5.80844 1.8V41H0.208438V1.8H5.80844ZM6.935 41V0.119999H12.311V41H6.935ZM18.7068 9.136L19.5468 26.328L19.7708 31.872H19.8268L20.0508 26.328L20.8908 9.136H26.2668L20.9468 49.96H15.5708L16.8028 41L12.7708 9.136H18.7068ZM33.1185 28.512H38.4945V35.176C38.4945 39.096 35.9745 41.336 32.5585 41.336C29.1425 41.336 26.6225 39.096 26.6225 35.176V14.904C26.6225 11.04 29.1985 8.744 32.6145 8.744C36.0305 8.744 38.4945 10.984 38.4945 14.904V26.44H31.9985V35.456C31.9985 36.016 32.1665 36.296 32.5585 36.296C32.9505 36.296 33.1185 36.016 33.1185 35.456V28.512ZM33.1185 14.624C33.1185 14.064 32.9505 13.784 32.5585 13.784C32.1665 13.784 31.9985 14.064 31.9985 14.624V21.4H33.1185V14.624ZM51.3981 30.528V35.176C51.3981 39.096 48.8781 41.336 45.4621 41.336C42.0461 41.336 39.5261 39.096 39.5261 35.176V29.744H44.9021V35.456C44.9021 36.016 45.0701 36.296 45.4621 36.296C45.8541 36.296 46.0221 36.016 46.0221 35.456V30.528C46.0221 28.96 44.7341 27.392 43.3341 25.712C41.5421 23.64 39.5261 21.288 39.5261 18.096V14.904C39.5261 11.04 42.1021 8.744 45.5181 8.744C48.9341 8.744 51.3981 10.984 51.3981 14.904V18.824H46.0221V14.624C46.0221 14.064 45.8541 13.784 45.4621 13.784C45.0701 13.784 44.9021 14.064 44.9021 14.624V18.096C44.9021 19.776 46.1901 21.288 47.6461 22.912C49.4381 24.984 51.3981 27.392 51.3981 30.528Z" fill="white"/>
<path d="M67.7716 1.8L70.8516 41H64.6916L64.3556 31.648H62.7876L62.4516 41H56.8516L59.9316 1.8H67.7716ZM62.9556 26.608H64.1876L63.7956 14.736L63.6276 7.96H63.5156L63.3476 14.736L62.9556 26.608ZM77.9076 14.624C77.9076 14.064 77.7396 13.784 77.3476 13.784C76.9556 13.784 76.7876 14.064 76.7876 14.624V41H71.4116V9.08H76.7876V11.32L76.8996 11.376C77.4596 9.696 78.5236 8.744 80.0356 8.744C81.7156 8.744 82.7796 9.92 83.0596 12.44H83.1716C83.5636 10.088 84.7396 8.744 86.5316 8.744C88.7156 8.744 89.7796 10.648 89.7796 14.904V41H84.4036V14.624C84.4036 14.064 84.2356 13.784 83.8436 13.784C83.4516 13.784 83.2836 14.064 83.2836 14.624V41H77.9076V14.624ZM96.2563 14.624V20.504H90.8803V14.904C90.8803 10.984 93.3443 8.744 96.7603 8.744C100.176 8.744 102.752 11.04 102.752 14.904V41H97.3763V36.968H97.2643C96.9283 39.768 95.6963 41.336 93.6803 41.336C91.7203 41.336 90.8803 39.824 90.8803 36.296V28.232C90.8803 24.032 93.5683 22.688 97.3763 21.4V14.624C97.3763 14.064 97.2083 13.784 96.8163 13.784C96.4243 13.784 96.2563 14.064 96.2563 14.624ZM97.3763 25.936C96.4243 26.384 96.2563 27.84 96.2563 29.184V35.512C96.2563 36.072 96.4243 36.296 96.8163 36.296C97.2083 36.296 97.3763 36.016 97.3763 35.456V25.936ZM110.392 14.624C110.392 14.064 110.224 13.784 109.832 13.784C109.44 13.784 109.272 14.064 109.272 14.624V41H103.896V9.08H109.272V11.32L109.384 11.376C109.944 9.696 111.008 8.744 112.52 8.744C114.704 8.744 115.768 10.648 115.768 14.904V22.184H110.392V14.624Z" fill="#3F5CB1"/>
</svg>
