<svg width="168" height="22" viewBox="0 0 168 22" fill="none" xmlns="http://www.w3.org/2000/svg">
<path d="M11.4788 14.24V17H0.0548438V14.24H4.30284V2.936H0.0548438V0.199999H11.4788V2.936H7.23084V14.24H11.4788ZM19.1324 0.199999V14.24H22.1804V17H13.1564V14.24H16.2044V2.936H13.1564V0.199999H19.1324ZM29.1012 17.024L22.1412 4.832H25.6452L30.8292 13.904L35.8692 4.832H39.2052L29.8932 21.632H26.5572L29.1012 17.024ZM56.5955 13.064C56.4835 13.656 56.2675 14.208 55.9475 14.72C55.6435 15.232 55.2675 15.672 54.8195 16.04C54.3715 16.408 53.8595 16.704 53.2835 16.928C52.7235 17.136 52.1315 17.24 51.5075 17.24H44.9315C44.2115 17.24 43.5395 17.104 42.9155 16.832C42.2915 16.56 41.7395 16.192 41.2595 15.728C40.7955 15.248 40.4275 14.696 40.1555 14.072C39.8835 13.432 39.7475 12.752 39.7475 12.032V9.776C39.7475 9.056 39.8835 8.384 40.1555 7.76C40.4275 7.136 40.7955 6.592 41.2595 6.128C41.7395 5.648 42.2915 5.272 42.9155 5C43.5395 4.728 44.2115 4.592 44.9315 4.592H51.5075C52.2595 4.592 52.9475 4.736 53.5715 5.024C54.2115 5.296 54.7635 5.68 55.2275 6.176C55.6915 6.656 56.0515 7.224 56.3075 7.88C56.5635 8.52 56.6915 9.208 56.6915 9.944L56.7155 11.744H42.6755V11.888C42.6755 12.448 42.7635 12.896 42.9395 13.232C43.1155 13.568 43.3635 13.832 43.6835 14.024C44.0195 14.2 44.4275 14.32 44.9075 14.384C45.3875 14.448 45.9315 14.48 46.5395 14.48H49.8995C50.8595 14.48 51.6515 14.392 52.2755 14.216C52.9155 14.04 53.3555 13.656 53.5955 13.064H56.5955ZM53.7395 9.368C53.6755 8.952 53.5395 8.616 53.3315 8.36C53.1395 8.088 52.8755 7.88 52.5395 7.736C52.2195 7.576 51.8355 7.472 51.3875 7.424C50.9555 7.36 50.4595 7.328 49.8995 7.328H46.5395C45.9955 7.328 45.4995 7.352 45.0515 7.4C44.6035 7.448 44.2115 7.552 43.8755 7.712C43.5555 7.856 43.2915 8.064 43.0835 8.336C42.8915 8.592 42.7635 8.936 42.6995 9.368H53.7395ZM70.5938 17.24H64.4978C63.5698 17.24 62.8018 17.12 62.1938 16.88C61.6018 16.624 61.1218 16.296 60.7538 15.896C60.4018 15.496 60.1538 15.056 60.0098 14.576C59.8658 14.096 59.7858 13.616 59.7698 13.136H62.7218C62.7218 13.68 62.8898 14.04 63.2258 14.216C63.5778 14.392 64.0018 14.48 64.4978 14.48H70.6658C71.2098 14.48 71.6178 14.416 71.8898 14.288C72.1778 14.144 72.3218 13.816 72.3218 13.304C72.3218 12.792 72.1778 12.472 71.8898 12.344C71.6178 12.216 71.2098 12.152 70.6658 12.152H64.2098C62.6418 12.152 61.5138 11.864 60.8258 11.288C60.1538 10.696 59.8178 9.752 59.8178 8.456C59.8178 7.144 60.1538 6.168 60.8258 5.528C61.4978 4.888 62.6258 4.568 64.2098 4.568H70.8578C71.6898 4.568 72.3698 4.688 72.8978 4.928C73.4418 5.168 73.8658 5.48 74.1698 5.864C74.4738 6.232 74.6818 6.648 74.7938 7.112C74.9058 7.576 74.9618 8.032 74.9618 8.48H72.0338C72.0338 7.968 71.9138 7.648 71.6738 7.52C71.4498 7.392 71.0338 7.328 70.4258 7.328H64.3058C63.3458 7.328 62.8658 7.704 62.8658 8.456C62.8658 9.208 63.3458 9.584 64.3058 9.584H70.5938C71.2498 9.584 71.8658 9.632 72.4418 9.728C73.0178 9.824 73.5218 10.016 73.9538 10.304C74.3858 10.576 74.7218 10.952 74.9618 11.432C75.2178 11.912 75.3458 12.536 75.3458 13.304C75.3458 14.072 75.2178 14.712 74.9618 15.224C74.7218 15.736 74.3858 16.144 73.9538 16.448C73.5218 16.736 73.0178 16.936 72.4418 17.048C71.8658 17.176 71.2498 17.24 70.5938 17.24Z" fill="white"/>
<path d="M95.1758 0.199999L104.176 17H100.84L99.1118 13.712H87.9038L86.1998 17H82.8638L91.8398 0.199999H95.1758ZM89.3438 10.976H97.6718L93.4958 3.032L89.3438 10.976ZM108.175 4.832V6.152C108.639 5.672 109.191 5.296 109.831 5.024C110.471 4.736 111.159 4.592 111.895 4.592H114.535C115.495 4.592 116.359 4.824 117.127 5.288C117.911 5.736 118.535 6.344 118.999 7.112C119.463 6.344 120.079 5.736 120.847 5.288C121.631 4.824 122.503 4.592 123.463 4.592H126.103C126.823 4.592 127.495 4.728 128.119 5C128.759 5.272 129.311 5.648 129.775 6.128C130.255 6.592 130.631 7.136 130.903 7.76C131.175 8.384 131.311 9.056 131.311 9.776V17H129.367V9.992C129.367 9.416 129.255 8.912 129.031 8.48C128.807 8.032 128.503 7.656 128.119 7.352C127.751 7.048 127.327 6.816 126.847 6.656C126.383 6.496 125.903 6.416 125.407 6.416H123.703C123.207 6.416 122.719 6.496 122.239 6.656C121.775 6.816 121.351 7.048 120.967 7.352C120.599 7.656 120.303 8.032 120.079 8.48C119.855 8.912 119.743 9.416 119.743 9.992V17H117.799V9.992C117.799 9.416 117.687 8.912 117.463 8.48C117.239 8.032 116.935 7.656 116.551 7.352C116.183 7.048 115.759 6.816 115.279 6.656C114.815 6.496 114.335 6.416 113.839 6.416H112.135C111.639 6.416 111.151 6.496 110.671 6.656C110.207 6.816 109.783 7.048 109.399 7.352C109.031 7.656 108.735 8.032 108.511 8.48C108.287 8.912 108.175 9.416 108.175 9.992V17H106.231V4.832H108.175ZM152.764 15.152V17H149.404C149.02 17 148.684 16.92 148.396 16.76C148.124 16.6 147.932 16.384 147.82 16.112C147.548 16.464 147.204 16.744 146.788 16.952C146.372 17.144 145.86 17.24 145.252 17.24H138.604C137.532 17.24 136.676 16.912 136.036 16.256C135.412 15.6 135.1 14.72 135.1 13.616C135.1 12.528 135.412 11.664 136.036 11.024C136.676 10.384 137.532 10.064 138.604 10.064H147.7V8.264C147.7 7.72 147.572 7.28 147.316 6.944C147.076 6.592 146.724 6.416 146.26 6.416H138.94C137.996 6.416 137.516 6.976 137.5 8.096H135.58C135.58 7.52 135.676 7.016 135.868 6.584C136.06 6.136 136.316 5.768 136.636 5.48C136.972 5.176 137.356 4.952 137.788 4.808C138.22 4.648 138.676 4.568 139.156 4.568H146.068C146.724 4.568 147.276 4.672 147.724 4.88C148.188 5.088 148.556 5.368 148.828 5.72C149.116 6.056 149.324 6.464 149.452 6.944C149.58 7.408 149.644 7.904 149.644 8.432V14.432C149.644 14.64 149.716 14.816 149.86 14.96C150.004 15.088 150.18 15.152 150.388 15.152H152.764ZM145.396 15.392C146.036 15.392 146.564 15.248 146.98 14.96C147.396 14.672 147.636 14.248 147.7 13.688V11.816H139.108C138.5 11.816 137.996 11.96 137.596 12.248C137.212 12.52 137.02 12.976 137.02 13.616C137.02 14.24 137.212 14.696 137.596 14.984C137.996 15.256 138.5 15.392 139.108 15.392H145.396ZM159.675 4.832V7.04C160.139 6.368 160.739 5.832 161.475 5.432C162.227 5.032 163.043 4.832 163.923 4.832H167.787V6.656H164.091C163.483 6.656 162.907 6.776 162.363 7.016C161.835 7.256 161.371 7.584 160.971 8C160.571 8.416 160.251 8.904 160.011 9.464C159.787 10.008 159.675 10.584 159.675 11.192V15.152H162.723V17H154.683V15.152H157.731V6.656H154.683V4.832H159.675Z" fill="#3F5CB1"/>
</svg>
